<?xml version="1.0" encoding="UTF-8"?>
<!DOCTYPE svg PUBLIC "-//W3C//DTD SVG 1.1//EN" "http://www.w3.org/Graphics/SVG/1.1/DTD/svg11.dtd">
<svg xmlns="http://www.w3.org/2000/svg" version="1.1" width="1024px" height="1024px" style="shape-rendering:geometricPrecision; text-rendering:geometricPrecision; image-rendering:optimizeQuality; fill-rule:evenodd; clip-rule:evenodd" xmlns:xlink="http://www.w3.org/1999/xlink">
<g><path style="opacity:1" fill="none" d="M -0.5,-0.5 C 340.833,-0.5 682.167,-0.5 1023.5,-0.5C 1023.5,340.833 1023.5,682.167 1023.5,1023.5C 682.167,1023.5 340.833,1023.5 -0.5,1023.5C -0.5,682.167 -0.5,340.833 -0.5,-0.5 Z"/></g>
<g><path style="opacity:1" fill="#fcfbf9" d="M 307.5,301.5 C 308.833,335.493 309.5,369.827 309.5,404.5C 309.417,519.042 309.417,633.376 309.5,747.5C 308.732,746.737 308.232,745.737 308,744.5C 307.5,596.834 307.333,449.167 307.5,301.5 Z"/></g>
<g><path style="opacity:1" fill="#e15852" d="M 610.5,298.5 C 607.482,298.335 604.482,298.502 601.5,299C 603.059,299.98 604.726,300.813 606.5,301.5C 603.932,302.868 601.599,302.534 599.5,300.5C 598.344,301.576 598.511,302.576 600,303.5C 600.667,369.167 600.667,434.833 600,500.5C 598.84,434.913 598.007,369.246 597.5,303.5C 596.5,368.83 596.167,434.163 596.5,499.5C 594.901,499.768 593.568,499.434 592.5,498.5C 593.5,498.5 594.5,498.5 595.5,498.5C 595.5,433.5 595.5,368.5 595.5,303.5C 598.798,296.459 603.798,294.792 610.5,298.5 Z"/></g>
<g><path style="opacity:1" fill="#0e242b" d="M 594.5,303.5 C 595.163,368.509 594.496,433.175 592.5,497.5C 591.737,496.732 590.737,496.232 589.5,496C 590.448,495.517 591.448,495.351 592.5,495.5C 592.167,431.163 592.5,366.83 593.5,302.5C 594.107,302.624 594.44,302.957 594.5,303.5 Z"/></g>
<g><path style="opacity:1" fill="#2b191d" d="M 616.5,550.5 C 618.01,545.953 619.01,541.287 619.5,536.5C 619.833,536.5 620.167,536.5 620.5,536.5C 620.201,538.604 620.534,540.604 621.5,542.5C 622.333,485.836 622.833,429.17 623,372.5C 623.667,429.833 623.667,487.167 623,544.5C 622.798,546.256 622.298,547.922 621.5,549.5C 620.833,548.5 620.167,547.5 619.5,546.5C 618.943,548.332 617.943,549.665 616.5,550.5 Z"/></g>
<g><path style="opacity:1" fill="#300e10" d="M 594.5,303.5 C 594.833,303.5 595.167,303.5 595.5,303.5C 595.5,368.5 595.5,433.5 595.5,498.5C 594.5,498.5 593.5,498.5 592.5,498.5C 592.5,498.167 592.5,497.833 592.5,497.5C 594.496,433.175 595.163,368.509 594.5,303.5 Z"/></g>
<g><path style="opacity:1" fill="#4c1e1d" d="M 621.5,369.5 C 620.504,425.095 620.171,480.762 620.5,536.5C 620.167,536.5 619.833,536.5 619.5,536.5C 618.837,480.49 619.504,424.823 621.5,369.5 Z"/></g>
<g><path style="opacity:1" fill="#e44f48" d="M 610.5,298.5 C 640.326,315.322 669.66,332.988 698.5,351.5C 726.866,376.807 733.699,407.14 719,442.5C 713.413,453.165 706.247,462.665 697.5,471C 690.53,475.015 685.863,473.181 683.5,465.5C 705.832,429.684 698.499,401.85 661.5,382C 650.576,377.701 639.91,373.034 629.5,368C 627.167,367.333 624.833,367.333 622.5,368C 621.944,368.383 621.611,368.883 621.5,369.5C 619.504,424.823 618.837,480.49 619.5,536.5C 619.01,541.287 618.01,545.953 616.5,550.5C 606.532,574.969 589.198,591.802 564.5,601C 550.571,605.793 536.238,607.793 521.5,607C 493.779,601.37 481.279,584.537 484,556.5C 488.06,541.423 495.894,528.59 507.5,518C 520.863,506.152 536.197,498.319 553.5,494.5C 562.524,494.358 571.524,494.692 580.5,495.5C 584.5,496.167 588.5,496.833 592.5,497.5C 592.5,497.833 592.5,498.167 592.5,498.5C 593.568,499.434 594.901,499.768 596.5,499.5C 596.167,434.163 596.5,368.83 597.5,303.5C 598.007,369.246 598.84,434.913 600,500.5C 600.667,434.833 600.667,369.167 600,303.5C 598.511,302.576 598.344,301.576 599.5,300.5C 601.599,302.534 603.932,302.868 606.5,301.5C 604.726,300.813 603.059,299.98 601.5,299C 604.482,298.502 607.482,298.335 610.5,298.5 Z"/></g>
<g><path style="opacity:1" fill="#f3f1ed" d="M 322.5,762.5 C 316.357,759.027 312.024,754.027 309.5,747.5C 309.417,633.376 309.417,519.042 309.5,404.5C 309.5,369.827 308.833,335.493 307.5,301.5C 307.878,299.079 308.545,296.746 309.5,294.5C 316.793,284.701 326.127,282.201 337.5,287C 418.668,335.419 500.002,383.585 581.5,431.5C 582.666,448.49 582.833,465.49 582,482.5C 566.846,479.02 552.013,480.186 537.5,486C 510.472,495.701 490.306,513.201 477,538.5C 469.374,556.678 469.708,574.678 478,592.5C 488.168,607.513 502.335,616.346 520.5,619C 563.279,621.692 596.779,605.525 621,570.5C 625.707,562.713 629.04,554.38 631,545.5C 632.28,518.202 632.947,490.868 633,463.5C 659.5,479.333 686,495.167 712.5,511C 721.745,519.796 722.912,529.63 716,540.5C 713.257,542.788 710.423,544.955 707.5,547C 588.335,617.081 469.335,687.415 350.5,758C 341.872,764.329 332.539,765.829 322.5,762.5 Z"/></g>
<g><path style="opacity:1" fill="#1e1f23" d="M 416.5,402.5 C 415.667,473.999 415.167,545.666 415,617.5C 411.523,623.214 406.69,624.714 400.5,622C 398.621,619.907 396.955,618.407 395.5,617.5C 394.334,546.001 394.168,474.335 395,402.5C 399.048,394.122 405.214,392.289 413.5,397C 415.16,398.488 416.16,400.321 416.5,402.5 Z"/></g>
<g><path style="opacity:1" fill="#1e2024" d="M 362.5,543.5 C 359.071,543.454 355.404,543.288 351.5,543C 349,541.833 347.167,540 346,537.5C 345.333,517.5 345.333,497.5 346,477.5C 347.122,475.376 348.622,473.543 350.5,472C 350.272,471.601 349.938,471.435 349.5,471.5C 357.139,467.991 362.972,469.991 367,477.5C 367.667,497.167 367.667,516.833 367,536.5C 366.484,539.547 364.984,541.88 362.5,543.5 Z"/></g>
<g><path style="opacity:1" fill="#d96863" d="M 553.5,494.5 C 557.151,493.835 560.985,493.501 565,493.5C 570.432,493.281 575.599,493.948 580.5,495.5C 571.524,494.692 562.524,494.358 553.5,494.5 Z"/></g>
<g><path style="opacity:1" fill="#1e1f20" d="M 349.5,471.5 C 349.938,471.435 350.272,471.601 350.5,472C 348.622,473.543 347.122,475.376 346,477.5C 345.333,497.5 345.333,517.5 346,537.5C 347.167,540 349,541.833 351.5,543C 355.404,543.288 359.071,543.454 362.5,543.5C 353.413,547.528 347.246,544.861 344,535.5C 343.333,516.5 343.333,497.5 344,478.5C 344.935,475.405 346.769,473.071 349.5,471.5 Z"/></g>
<g><path style="opacity:1" fill="#1e1f23" d="M 453.5,431.5 C 460.149,430.112 465.316,432.112 469,437.5C 469.667,459.167 469.667,480.833 469,502.5C 467.197,507.581 463.531,510.248 458,510.5C 452.534,509.701 448.868,506.701 447,501.5C 446.333,480.833 446.333,460.167 447,439.5C 448.305,436.039 450.471,433.372 453.5,431.5 Z"/></g>
<g><path style="opacity:1" fill="#19191a" d="M 416.5,402.5 C 417.665,473.332 417.832,544.332 417,615.5C 414.021,624.37 408.188,626.87 399.5,623C 397.536,621.549 396.203,619.716 395.5,617.5C 396.955,618.407 398.621,619.907 400.5,622C 406.69,624.714 411.523,623.214 415,617.5C 415.167,545.666 415.667,473.999 416.5,402.5 Z"/></g>
<g><path style="opacity:1" fill="#0b0c11" d="M 309.5,294.5 C 308.545,296.746 307.878,299.079 307.5,301.5C 307.333,449.167 307.5,596.834 308,744.5C 308.232,745.737 308.732,746.737 309.5,747.5C 312.024,754.027 316.357,759.027 322.5,762.5C 313.087,759.188 307.587,752.188 306,741.5C 305.333,595.167 305.333,448.833 306,302.5C 306.25,299.246 307.25,296.246 309,293.5C 309.399,293.728 309.565,294.062 309.5,294.5 Z"/></g>
</svg>
